# xmcd
#
# Track frame offsets: 
#        150
#        12684
#        31492
#        54236
#        74087
#        93684
#        118591
#        138368
#        158265
#        176406
#        193277
#
# Disc length: 2872 seconds
#
# Revision: 1
# Processed by: cddbd v1.5.1PL0 Copyright (c) Steve Scherf et al.
# Submitted via: ExactAudioCopy v0.95a5
#
DISCID=990b360b
DTITLE=Ben Harper - Pleasure And Pain
DYEAR=1900
DGENRE=
TTITLE0=Whipping Boy
TTITLE1=Jesus On The Main Line
TTITLE2=Pay The Man
TTITLE3=Quarter Of A Man
TTITLE4=Mama's Got A Girlfriend Now
TTITLE5=Angel From Montgomery
TTITLE6=Click Yo' Heels
TTITLE7=You Should Have Come To Me
TTITLE8=Dust My Broom
TTITLE9=Sweet Home Chicago
TTITLE10=Pleasure And Pain
EXTD=
EXTT0=
EXTT1=
EXTT2=
EXTT3=
EXTT4=
EXTT5=
EXTT6=
EXTT7=
EXTT8=
EXTT9=
EXTT10=with Tom Freund
PLAYORDER=
